<svg width="54" height="54" viewBox="0 0 54 54" fill="none" xmlns="http://www.w3.org/2000/svg">
<path fill-rule="evenodd" clip-rule="evenodd" d="M0 27C0 34.4559 3.02294 41.2058 7.90846 46.0915C12.794 50.9773 19.5435 54 27 54C34.4565 54 41.2058 50.9771 46.0915 46.0915C50.9769 41.2062 54 34.4565 54 27C54 19.5435 50.9771 12.7942 46.0915 7.90846C41.2062 3.02311 34.4565 0 27 0C19.5435 0 12.7942 3.02294 7.90846 7.90846C3.02272 12.794 0 19.5435 0 27ZM18.8286 39.0788C18.4712 38.4824 18.6671 37.7072 19.2635 37.3498L36.486 27.004L21.1778 17.8058V27.004C21.1778 27.7038 20.6116 28.2701 19.9118 28.2701C19.2142 28.2701 18.6458 27.7038 18.6458 27.004V15.5757C18.6458 14.8781 19.212 14.3096 19.9118 14.3096C20.1874 14.3096 20.4415 14.3979 20.6503 14.5465L39.5847 25.9236C40.1833 26.281 40.3792 27.0561 40.0197 27.6525C39.9055 27.842 39.7505 27.9905 39.574 28.0939L20.5601 39.5162C19.9638 39.8736 19.1886 39.6776 18.8312 39.0812L18.8286 39.0788Z" fill="white"/>
</svg>
